<?xml version="1.0" encoding="utf-8"?>
<!-- Generator: Adobe Illustrator 16.0.0, SVG Export Plug-In . SVG Version: 6.00 Build 0)  -->
<!DOCTYPE svg PUBLIC "-//W3C//DTD SVG 1.1//EN" "http://www.w3.org/Graphics/SVG/1.1/DTD/svg11.dtd">
<svg version="1.1" id="Layer_1" xmlns="http://www.w3.org/2000/svg" xmlns:xlink="http://www.w3.org/1999/xlink" x="0px" y="0px"
	 width="275.208px" height="106.339px" viewBox="0 0 275.208 106.339" enable-background="new 0 0 275.208 106.339"
	 xml:space="preserve">
<g>
	<path fill="#FFFFFF" d="M16.411,13.128c10.357,0,14.369,4.012,14.369,14.369v21.152h-7.075V28.227c0-7.075-2.115-9.482-8.388-9.482
		H7.075v29.904H0V13.128H16.411z"/>
	<path fill="#FFFFFF" d="M66.739,33.186H45.442c0,3.574,0.729,5.689,2.479,7.513c1.605,1.678,4.012,2.334,8.607,2.334h10.211v5.616
		H54.632c-6.126,0-8.971-0.802-11.67-3.209c-3.209-2.991-5.033-7.877-5.033-13.858c0-7.439,2.626-12.91,7.731-15.973
		c2.771-1.75,6.054-2.48,10.868-2.48h10.211v5.616h-9.19c-7.877,0-10.868,2.188-12.107,8.826h21.297V33.186z"/>
	<path fill="#FFFFFF" d="M78.265,0h7.075v13.128h10.284v5.616H85.34v18.672c0,5.033,0.656,5.616,6.126,5.616h4.157v5.616h-6.783
		c-4.595,0-6.418-0.438-8.169-2.115c-1.75-1.604-2.407-4.084-2.407-8.534V18.745h-6.783v-5.616h6.783V0z"/>
	<path fill="#FFFFFF" d="M105.691,0h7.075v13.128h10.284v5.616h-10.284v18.672c0,5.033,0.656,5.616,6.126,5.616h4.158v5.616h-6.783
		c-4.595,0-6.418-0.438-8.169-2.115c-1.75-1.604-2.407-4.084-2.407-8.534V18.745h-6.783v-5.616h6.783V0z"/>
	<path fill="#FFFFFF" d="M155.362,33.186h-21.297c0,3.574,0.729,5.689,2.479,7.513c1.605,1.678,4.012,2.334,8.607,2.334h10.211
		v5.616h-12.107c-6.126,0-8.971-0.802-11.67-3.209c-3.209-2.991-5.033-7.877-5.033-13.858c0-7.439,2.626-12.91,7.731-15.973
		c2.771-1.75,6.054-2.48,10.868-2.48h10.211v5.616h-9.19c-7.877,0-10.868,2.188-12.107,8.826h21.297V33.186z"/>
</g>
<g>
	<path fill="#FFFFFF" d="M16.411,59.513c10.357,0,14.369,4.012,14.369,14.369v21.152h-7.075V74.611c0-7.075-2.115-9.482-8.388-9.482
		H7.075v29.904H0V59.513H16.411z"/>
	<path fill="#FFFFFF" d="M64.333,73.372c0-7.221-0.948-8.242-8.023-8.242H39.607v-5.616h18.234c6.345,0,9.263,0.875,11.305,3.282
		c1.75,2.042,2.261,4.376,2.261,9.773v22.465H53.392c-6.783,0-8.68-0.365-11.16-2.115c-2.553-1.896-3.938-4.887-3.938-8.534
		c0-4.157,1.678-7.658,4.449-9.409c1.823-1.167,4.376-1.604,8.971-1.604H64.333z M52.517,78.988c-5.033,0-6.929,1.458-6.929,5.251
		c0,3.793,1.896,5.179,6.929,5.179h11.816v-10.43H52.517z"/>
	<path fill="#FFFFFF" d="M97.376,59.513c10.357,0,14.369,4.012,14.369,14.369v21.152h-7.075V74.611c0-7.075-2.115-9.482-8.388-9.482
		H88.04v29.904h-7.075V59.513H97.376z"/>
	<path fill="#FFFFFF" d="M155.145,77.456c0,11.305-6.71,17.942-18.089,17.942c-11.67,0-18.161-6.272-18.161-17.505
		c0-5.397,1.678-10.357,4.595-13.566c3.136-3.501,7.585-5.178,13.931-5.178C148.799,59.149,155.145,65.713,155.145,77.456z
		 M126.189,77.456c0,7.95,3.646,12.107,10.648,12.107c7.294,0,11.014-4.084,11.014-11.962c0-8.023-3.938-12.618-10.868-12.618
		S126.189,69.433,126.189,77.456z"/>
	<path fill="#FFFFFF" d="M186.656,73.372c0-7.221-0.948-8.242-8.023-8.242H161.93v-5.616h18.234c6.345,0,9.263,0.875,11.305,3.282
		c1.75,2.042,2.261,4.376,2.261,9.773v22.465h-18.015c-6.783,0-8.68-0.365-11.16-2.115c-2.553-1.896-3.938-4.887-3.938-8.534
		c0-4.157,1.678-7.658,4.449-9.409c1.823-1.167,4.376-1.604,8.971-1.604H186.656z M174.84,78.988c-5.033,0-6.929,1.458-6.929,5.251
		c0,3.793,1.896,5.179,6.929,5.179h11.816v-10.43H174.84z"/>
	<path fill="#FFFFFF" d="M217.949,59.513c7.439,0,10.138,0.875,13.274,4.304c2.771,3.063,4.23,7.585,4.23,13.42
		c0,5.981-2.042,11.597-5.324,14.661c-2.845,2.553-5.324,3.136-12.983,3.136h-6.783v11.305h-7.075V59.513H217.949z M210.363,89.417
		h6.783c4.012,0,6.783-0.802,8.315-2.334c1.678-1.823,2.699-5.543,2.699-10.284c0-8.314-3.136-11.67-11.014-11.67h-6.783V89.417z"/>
	<path fill="#FFFFFF" d="M257.703,59.513c7.439,0,10.138,0.875,13.274,4.304c2.771,3.063,4.23,7.585,4.23,13.42
		c0,5.981-2.043,11.597-5.325,14.661c-2.844,2.553-5.324,3.136-12.982,3.136h-6.783v11.305h-7.075V59.513H257.703z M250.117,89.417
		h6.783c4.012,0,6.783-0.802,8.314-2.334c1.678-1.823,2.699-5.543,2.699-10.284c0-8.314-3.137-11.67-11.014-11.67h-6.783V89.417z"/>
</g>
</svg>
