<?xml version="1.0" encoding="utf-8"?>
<!-- Generator: Adobe Illustrator 16.0.0, SVG Export Plug-In . SVG Version: 6.00 Build 0)  -->
<!DOCTYPE svg PUBLIC "-//W3C//DTD SVG 1.1//EN" "http://www.w3.org/Graphics/SVG/1.1/DTD/svg11.dtd">
<svg version="1.1" id="flag-icon-css-gb" xmlns="http://www.w3.org/2000/svg" xmlns:xlink="http://www.w3.org/1999/xlink" x="0px"
	 y="0px" width="793.707px" height="595.281px" viewBox="24.091 0 793.707 595.281"
	 enable-background="new 24.091 0 793.707 595.281" xml:space="preserve">
<path fill="#012169" d="M24.091,0h793.707v595.281H24.091V0z"/>
<path fill="#FFFFFF" d="M117.104,0l302.601,224.47L721.066,0h96.732v76.891L520.158,298.88l297.641,220.75v75.65h-99.213
	l-297.641-221.99l-296.4,221.99H24.091v-74.41l296.4-220.75l-296.4-220.75V0H117.104z"/>
<path fill="#C8102E" d="M549.921,348.488l267.877,197.186v49.607L481.712,348.488H549.921z M321.731,373.291l7.441,43.406
	L91.061,595.281H24.091L321.731,373.291z M817.798,0v3.721L508.998,236.872l2.479-54.567L755.791,0H817.798z M24.091,0l296.4,218.27
	h-74.41L24.091,52.087V0z"/>
<path fill="#FFFFFF" d="M322.972,0v595.281h198.426V0H322.972z M24.091,198.427v198.426h793.707V198.427H24.091z"/>
<path fill="#C8102E" d="M24.091,239.353v119.055h793.707V239.353H24.091z M362.657,0v595.281h119.055V0H362.657z"/>
</svg>
