<svg version="1.1" id="Layer_1" xmlns="http://www.w3.org/2000/svg" xmlns:xlink="http://www.w3.org/1999/xlink" x="0px" y="0px"
	 width="12px" height="16px" viewBox="0 0 12 16" enable-background="new 0 0 12 16" xml:space="preserve">
<path fill="#dbece0" d="M11,7h-1V4c0-2.209-1.791-4-4-4S2,1.791,2,4v3H1C0.45,7,0,7.45,0,8v7c0,0.549,0.45,1,1,1h10
	c0.55,0,1-0.451,1-1V8C12,7.45,11.55,7,11,7z M6,13c-0.552,0-1-0.449-1-1c0-0.553,0.448-1,1-1s1,0.447,1,1C7,12.551,6.552,13,6,13z
	 M8,7H4V4c0-1.103,0.897-2,2-2c1.104,0,2,0.897,2,2V7z"/>
</svg>
